# xmcd
#
# Track frame offsets:
#	150
#	20751
#	39689
#	60474
#	75301
#	94012
#	110123
#	133962
#	154895
#	173052
#	195316
#	213012
#	233172
#	250651
#
# Disc length: 3578 seconds
#
# Revision: 1
# Processed by: cddbd v1.5.2PL0 Copyright (c) Steve Scherf et al.
# Submitted via: audiograbber 1.83.01
#
DISCID=b30df80e
DTITLE=Le meilleur de la Socca et du Jump-Up - Compilation Socca
DYEAR=1995
DGENRE=Salsa
TTITLE0=01 - Dr Dale  - Kaylaylay
TTITLE1=01 - Feelin De Vibes-Square One - Controller
TTITLE2=03 - Kid Site - Fay Gyul Wine
TTITLE3=04 - Lady Spencer  - D Ring Bi Ding Song
TTITLE4=05 - Square One - Wining Degree
TTITLE5=06 - Nikki Crosby - I'll Learn To wine
TTITLE6=07 - Ajala - Bring Down The Riddum
TTITLE7=08 - 3 Canal - Blue
TTITLE8=09 - Kindred - Hotter Than Fire
TTITLE9=10 - Coalishun - Ice Cream
TTITLE10=11 - Sharlene Boodram - Free Up Session
TTITLE11=12 - Taxi - Frenchman
TTITLE12=13 - Brother Resistance - Rejoice
TTITLE13=14 - Oscar B - Jump Up
EXTD=
EXTT0=
EXTT1=
EXTT2=
EXTT3=
EXTT4=
EXTT5=
EXTT6=
EXTT7=
EXTT8=
EXTT9=
EXTT10=
EXTT11=
EXTT12=
EXTT13=
PLAYORDER=
